<?xml version="1.0" encoding="UTF-8" standalone="no"?>
<svg
   class="ionicon"
   viewBox="0 0 512 512"
   version="1.1"
   id="svg8"
   xmlns="http://www.w3.org/2000/svg"
   xmlns:svg="http://www.w3.org/2000/svg"
   xmlns:rdf="http://www.w3.org/1999/02/22-rdf-syntax-ns#"
   xmlns:cc="http://creativecommons.org/ns#"
   xmlns:dc="http://purl.org/dc/elements/1.1/">
  <defs
     id="defs12" />
  <title
     id="title2">Copy</title>
  <path
     d="m 82.28571,512 h 256 a 82.285714,82.285714 0 0 0 82.28572,-82.28571 v -256 A 82.285714,82.285714 0 0 0 338.28571,91.42857 h -256 A 82.285714,82.285714 0 0 0 0,173.71429 v 256 A 82.285714,82.285714 0 0 0 82.28571,512 Z"
     id="path4"
     style="fill:#22a7ff;fill-opacity:1;stroke-width:1.14286" />
  <path
     d="M 365.71429,54.857143 H 96.13714 A 82.422857,82.422857 0 0 1 173.71429,0 h 256 A 82.285714,82.285714 0 0 1 512,82.28571 v 256 a 82.422857,82.422857 0 0 1 -54.85714,77.57715 V 146.28571 A 91.428571,91.428571 0 0 0 365.71429,54.857143 Z"
     id="path6"
     style="fill:#0094fd;fill-opacity:1;stroke-width:1.14286" />
  <metadata
     id="metadata1068">
    <rdf:RDF>
      <cc:Work
         rdf:about="">
        <dc:title>Copy</dc:title>
      </cc:Work>
    </rdf:RDF>
  </metadata>
</svg>
