<?xml version="1.0" encoding="UTF-8" standalone="no"?>
<svg
   class="ionicon"
   viewBox="0 0 512 512"
   version="1.1"
   id="svg6"
   xmlns="http://www.w3.org/2000/svg"
   xmlns:svg="http://www.w3.org/2000/svg"
   xmlns:rdf="http://www.w3.org/1999/02/22-rdf-syntax-ns#"
   xmlns:cc="http://creativecommons.org/ns#"
   xmlns:dc="http://purl.org/dc/elements/1.1/">
  <defs
     id="defs10" />
  <title
     id="title2">Folder Open</title>
  <path
     d="M408 96H252.11a23.89 23.89 0 01-13.31-4L211 73.41A55.77 55.77 0 00179.89 64H104a56.06 56.06 0 00-56 56v24h416c0-30.88-25.12-48-56-48zM423.75 448H88.25a56 56 0 01-55.93-55.15L16.18 228.11v-.28A48 48 0 0164 176h384.1a48 48 0 0147.8 51.83v.28l-16.22 164.74A56 56 0 01423.75 448zm56.15-221.45z"
     id="path4" />
  <metadata
     id="metadata239">
    <rdf:RDF>
      <cc:Work
         rdf:about="">
        <dc:title>Folder Open</dc:title>
      </cc:Work>
    </rdf:RDF>
  </metadata>
</svg>
